<svg width="45" height="45" viewBox="0 0 45 45" fill="none" xmlns="http://www.w3.org/2000/svg">
<path d="M41.2502 15.9375C41.2502 22.05 36.7502 27.0937 30.9002 27.975V27.8625C30.3189 20.5875 24.4127 14.6812 17.0814 14.1H17.0251C17.9064 8.25 22.9502 3.75 29.0627 3.75C35.7939 3.75 41.2502 9.20625 41.2502 15.9375Z" fill="#715AFF"/>
<path d="M28.0875 28.0875C27.6187 22.1437 22.8563 17.3813 16.9125 16.9125C16.5938 16.8938 16.2563 16.875 15.9375 16.875C9.20625 16.875 3.75 22.3313 3.75 29.0625C3.75 35.7938 9.20625 41.25 15.9375 41.25C22.6688 41.25 28.125 35.7938 28.125 29.0625C28.125 28.7437 28.1062 28.4062 28.0875 28.0875ZM17.5875 30.7125L15.9375 33.75L14.2875 30.7125L11.25 29.0625L14.2875 27.4125L15.9375 24.375L17.5875 27.4125L20.625 29.0625L17.5875 30.7125Z" fill="#715AFF"/>
</svg>
