<svg width="39" height="39" viewBox="0 0 39 39" fill="none" xmlns="http://www.w3.org/2000/svg">
<path fill-rule="evenodd" clip-rule="evenodd" d="M3.79497 12.7968C2.91672 14.6287 3.22502 16.7713 3.84161 21.0566L4.29461 24.2047C5.08665 29.7094 5.48268 32.4616 7.39217 34.1058C9.30164 35.75 12.102 35.75 17.7026 35.75H21.2974C26.898 35.75 29.6983 35.75 31.6079 34.1058C33.5172 32.4616 33.9133 29.7094 34.7054 24.2047L35.1583 21.0566C35.775 16.7713 36.0833 14.6287 35.205 12.7968C34.3268 10.9648 32.4574 9.8513 28.7188 7.62419L26.4683 6.28366C23.0734 4.26122 21.3757 3.25 19.5 3.25C17.6243 3.25 15.9267 4.26122 12.5316 6.28366L10.2812 7.62419C6.54255 9.8513 4.67322 10.9648 3.79497 12.7968ZM13.4064 29.2497C13.4064 28.5766 13.9521 28.0309 14.6252 28.0309H24.3752C25.0482 28.0309 25.5939 28.5766 25.5939 29.2497C25.5939 29.9228 25.0482 30.4684 24.3752 30.4684H14.6252C13.9521 30.4684 13.4064 29.9228 13.4064 29.2497Z" fill="#838383"/>
</svg>
