<svg width="171" height="171" viewBox="0 0 171 171" fill="none" xmlns="http://www.w3.org/2000/svg">
<path d="M21.375 21.375L149.625 149.625M121.125 71.25V57C121.125 37.3249 105.175 21.375 85.5 21.375C78.5766 21.375 72.1143 23.35 66.6463 26.7673M50.4723 50.4691C50.0801 52.5863 49.875 54.7692 49.875 57V71.4552M49.875 71.4552C45.6832 71.711 42.7093 72.2867 40.171 73.5799C36.149 75.629 32.879 78.8987 30.8297 82.9207C28.5 87.4936 28.5 93.4786 28.5 105.45V115.425C28.5 127.396 28.5 133.381 30.8297 137.954C32.879 141.976 36.149 145.246 40.171 147.295C44.7433 149.625 50.7289 149.625 62.7 149.625H108.3C120.271 149.625 126.256 149.625 130.829 147.295C134.365 145.493 137.32 142.748 139.375 139.378M49.875 71.4552C53.2339 71.25 57.3747 71.25 62.7 71.25H71.25M142.499 102.616C142.484 92.5046 142.308 87.1174 140.17 82.9207C138.121 78.8987 134.851 75.629 130.829 73.5799C126.633 71.4417 121.245 71.2657 111.134 71.2514" stroke="#715AFF" stroke-width="5" stroke-linecap="round" stroke-linejoin="round"/>
</svg>
