<svg width="39" height="39" viewBox="0 0 39 39" fill="none" xmlns="http://www.w3.org/2000/svg">
<path d="M35.4412 8.2874C34.8562 5.7524 32.5162 3.8999 29.7862 3.8999H9.31125C8.00422 3.90026 6.73346 4.32976 5.69422 5.12241C4.65497 5.91505 3.90472 7.027 3.55875 8.2874L1.51125 16.0874C1.12125 17.4524 1.70625 18.8174 2.87625 19.5974L3.26625 19.8899C3.85125 20.1824 4.33875 20.4749 4.92375 20.5724V31.1999C4.92683 32.2333 5.33872 33.2235 6.06944 33.9542C6.80016 34.6849 7.79035 35.0968 8.82375 35.0999H13.4062C14.4396 35.0968 15.4298 34.6849 16.1606 33.9542C16.8913 33.2235 17.3032 32.2333 17.3062 31.1999V27.2999H22.6687V31.1999C22.6718 32.2333 23.0837 33.2235 23.8144 33.9542C24.5452 34.6849 25.5354 35.0968 26.5687 35.0999H30.2737C31.3071 35.0968 32.2973 34.6849 33.0281 33.9542C33.7588 33.2235 34.1707 32.2333 34.1737 31.1999V20.5724C34.7269 20.4808 35.2568 20.2821 35.7337 19.9874L36.1237 19.6949C36.7021 19.3138 37.1453 18.7599 37.3904 18.1122C37.6355 17.4644 37.6699 16.7559 37.4888 16.0874L35.4412 8.2874ZM30.4687 31.1999H26.5687V27.2999C26.5657 26.2665 26.1538 25.2763 25.4231 24.5456C24.6923 23.8149 23.7021 23.403 22.6687 23.3999H17.3062C16.2729 23.403 15.2827 23.8149 14.5519 24.5456C13.8212 25.2763 13.4093 26.2665 13.4062 27.2999V31.1999H8.82375V19.4999C10.0912 19.0124 11.4562 19.2074 12.6262 19.8899C13.3136 20.3662 14.13 20.6214 14.9662 20.6214C15.8025 20.6214 16.6189 20.3662 17.3062 19.8899C17.9936 19.4136 18.81 19.1584 19.6462 19.1584C20.4825 19.1584 21.2989 19.4136 21.9862 19.8899C22.6736 20.3662 23.49 20.6214 24.3262 20.6214C25.1625 20.6214 25.9789 20.3662 26.6662 19.8899C27.2197 19.5185 27.8558 19.2887 28.5189 19.2207C29.1819 19.1527 29.8515 19.2486 30.4687 19.4999V31.1999ZM33.2962 16.6724C31.9756 15.7675 30.4122 15.2832 28.8112 15.2832C27.2103 15.2832 25.6469 15.7675 24.3262 16.6724C24.3092 16.695 24.2871 16.7134 24.2617 16.726C24.2363 16.7386 24.2083 16.7452 24.18 16.7452C24.1516 16.7452 24.1237 16.7386 24.0983 16.726C24.0729 16.7134 24.0508 16.695 24.0337 16.6724C22.7131 15.7675 21.1497 15.2832 19.5487 15.2832C17.9478 15.2832 16.3844 15.7675 15.0637 16.6724C15.0467 16.695 15.0246 16.7134 14.9992 16.726C14.9738 16.7386 14.9458 16.7452 14.9175 16.7452C14.8891 16.7452 14.8612 16.7386 14.8358 16.726C14.8104 16.7134 14.7883 16.695 14.7712 16.6724C13.4506 15.7675 11.8872 15.2832 10.2862 15.2832C8.68534 15.2832 7.12187 15.7675 5.80125 16.6724C5.78416 16.695 5.76206 16.7134 5.73668 16.726C5.7113 16.7386 5.68334 16.7452 5.655 16.7452C5.62665 16.7452 5.59869 16.7386 5.57331 16.726C5.54794 16.7134 5.52583 16.695 5.50875 16.6724L7.36125 9.2624C7.55625 8.3849 8.33625 7.7999 9.31125 7.7999H29.8837C30.3131 7.79543 30.7311 7.9381 31.0681 8.20418C31.4052 8.47026 31.6409 8.84371 31.7362 9.2624L33.5887 16.6724C33.5887 16.6724 33.3937 16.7699 33.2962 16.6724Z" fill="#838383"/>
</svg>
