<svg width="39" height="39" viewBox="0 0 39 39" fill="none" xmlns="http://www.w3.org/2000/svg">
<path d="M19.4782 38.742C18.9619 38.742 18.4456 38.6089 17.985 38.3435L3.88726 30.2034C2.96602 29.6722 2.3941 28.6812 2.3941 27.6178V11.339C2.3941 10.2752 2.96645 9.28416 3.88769 8.7529L17.985 0.613278C18.9062 0.0815954 20.0501 0.0811673 20.9717 0.613278L35.069 8.75247C35.9899 9.28373 36.5622 10.2747 36.5622 11.3385V27.6174C36.5622 28.6812 35.9899 29.6722 35.0686 30.2034L20.9713 38.3431C20.5107 38.6089 19.9944 38.742 19.4782 38.742ZM19.4782 2.78196C19.4062 2.78196 19.3343 2.80037 19.2697 2.83761L5.17152 10.9772C5.04267 11.0517 4.96262 11.1904 4.96262 11.339V27.6178C4.96262 27.7663 5.04267 27.905 5.17109 27.9791L19.2692 36.1192C19.3977 36.1928 19.5578 36.1936 19.6866 36.1192L33.7848 27.9795C33.9136 27.905 33.9933 27.7668 33.9933 27.6178V11.339C33.9933 11.19 33.9132 11.0517 33.7852 10.9777L19.6866 2.83761C19.6224 2.80037 19.5501 2.78196 19.4782 2.78196Z" fill="#838383"/>
<path d="M13.9653 25.2411C13.529 25.2411 13.1125 25.0181 12.8741 24.6341L9.68997 19.5043V23.9569C9.68997 24.6662 9.11505 25.2411 8.40571 25.2411C7.69637 25.2411 7.12145 24.6662 7.12145 23.9569V14.9996C7.12145 14.426 7.50202 13.9217 8.0534 13.7646C8.60648 13.6083 9.19467 13.8352 9.4969 14.3224L12.681 19.4521V14.9996C12.681 14.2903 13.2559 13.7153 13.9653 13.7153C14.6746 13.7153 15.2495 14.2903 15.2495 14.9996V23.9569C15.2495 24.5305 14.869 25.0348 14.3176 25.1919C14.2007 25.2253 14.0821 25.2411 13.9653 25.2411Z" fill="#838383"/>
<path d="M18.2949 25.2411C17.5856 25.2411 17.0107 24.6662 17.0107 23.9569V14.9996C17.0107 14.2903 17.5856 13.7153 18.2949 13.7153H21.857C22.5664 13.7153 23.1413 14.2903 23.1413 14.9996C23.1413 15.7089 22.5664 16.2838 21.857 16.2838H19.5792V23.9569C19.5792 24.6662 19.0043 25.2411 18.2949 25.2411Z" fill="#838383"/>
<path d="M21.857 20.7624H18.2949C17.5856 20.7624 17.0107 20.1874 17.0107 19.4781C17.0107 18.7688 17.5856 18.1938 18.2949 18.1938H21.857C22.5664 18.1938 23.1413 18.7688 23.1413 19.4781C23.1413 20.1874 22.5664 20.7624 21.857 20.7624Z" fill="#838383"/>
<path d="M30.5506 16.2838H25.4602C24.7509 16.2838 24.176 15.7089 24.176 14.9996C24.176 14.2903 24.7509 13.7153 25.4602 13.7153H30.5506C31.2599 13.7153 31.8349 14.2903 31.8349 14.9996C31.8349 15.7089 31.2599 16.2838 30.5506 16.2838Z" fill="#838383"/>
<path d="M28.0052 25.2411C27.2959 25.2411 26.7209 24.6662 26.7209 23.9569V14.9996C26.7209 14.2903 27.2959 13.7153 28.0052 13.7153C28.7145 13.7153 29.2895 14.2903 29.2895 14.9996V23.9569C29.2895 24.6662 28.715 25.2411 28.0052 25.2411Z" fill="#838383"/>
</svg>
