<svg width="185" height="260" viewBox="0 0 185 260" fill="none" xmlns="http://www.w3.org/2000/svg">
<path fill-rule="evenodd" clip-rule="evenodd" d="M173.698 -48.6078C196.409 -49.7464 219.225 -76.5146 239.314 -65.2304C260.068 -53.5728 252.568 -17.4946 265.756 3.10223C276.804 20.3574 304.815 23.9355 309.39 44.2157C314.086 65.0298 290.171 82.3909 288.453 103.714C286.688 125.601 309.563 148.688 299.425 167.849C289.344 186.9 258.92 178.067 242.286 190.965C225.576 203.922 221.516 230.204 203.973 241.86C185.136 254.377 162.229 258.632 139.997 258.934C115.571 259.266 82.1592 265.471 68.9542 243.695C53.0555 217.476 86.7292 179.921 74.8088 151.43C64.689 127.244 26.0831 131.113 12.5476 108.881C-0.879594 86.8264 -1.9169 57.7317 1.98313 31.8139C6.04376 4.82862 14.8635 -24.377 35.1404 -41.2614C55.6594 -58.3475 84.7239 -57.4052 110.788 -58.7872C132.208 -59.9229 152.274 -47.5338 173.698 -48.6078Z" fill="#715AFF"/>
</svg>
