<svg width="32" height="32" viewBox="0 0 32 32" fill="none" xmlns="http://www.w3.org/2000/svg">
<path d="M30.6667 5.33325C30.6667 3.12412 28.8759 1.33325 26.6667 1.33325H21.3333C20.5969 1.33325 20 1.93021 20 2.66659C20 3.40296 20.5969 3.99992 21.3333 3.99992H26.6667C27.4031 3.99992 28 4.59688 28 5.33325V10.6666C28 11.403 28.5969 11.9999 29.3333 11.9999C30.0697 11.9999 30.6667 11.403 30.6667 10.6666V5.33325Z" fill="#715AFF"/>
<path d="M30.6667 21.3333C30.6667 20.5969 30.0697 20 29.3333 20C28.5969 20 28 20.5969 28 21.3333V26.6667C28 27.4031 27.4031 28 26.6667 28H21.3333C20.5969 28 20 28.5969 20 29.3333C20 30.0697 20.5969 30.6667 21.3333 30.6667H26.6667C28.8759 30.6667 30.6667 28.8759 30.6667 26.6667V21.3333Z" fill="#715AFF"/>
<path d="M5.33333 28C4.59696 28 4 27.4031 4 26.6667V21.3333C4 20.5969 3.40304 20 2.66667 20C1.93029 20 1.33333 20.5969 1.33333 21.3333V26.6667C1.33333 28.8759 3.1242 30.6667 5.33333 30.6667H10.6667C11.403 30.6667 12 30.0697 12 29.3333C12 28.5969 11.403 28 10.6667 28H5.33333Z" fill="#715AFF"/>
<path d="M1.33333 10.6666C1.33333 11.403 1.93029 11.9999 2.66667 11.9999C3.40304 11.9999 4 11.403 4 10.6666V5.33325C4 4.59688 4.59696 3.99992 5.33333 3.99992H10.6667C11.403 3.99992 12 3.40296 12 2.66659C12 1.93021 11.403 1.33325 10.6667 1.33325H5.33333C3.1242 1.33325 1.33333 3.12412 1.33333 5.33325V10.6666Z" fill="#715AFF"/>
<path fill-rule="evenodd" clip-rule="evenodd" d="M14.6667 8.00008C14.6667 7.26371 14.0697 6.66675 13.3333 6.66675H8C7.26363 6.66675 6.66667 7.26371 6.66667 8.00008V13.3334C6.66667 14.0698 7.26363 14.6667 8 14.6667H13.3333C14.0697 14.6667 14.6667 14.0698 14.6667 13.3334V8.00008ZM12 10.0001C12 9.63189 11.7015 9.33341 11.3333 9.33341H10C9.63181 9.33341 9.33333 9.63189 9.33333 10.0001V11.3334C9.33333 11.7016 9.63181 12.0001 10 12.0001H11.3333C11.7015 12.0001 12 11.7016 12 11.3334V10.0001Z" fill="#715AFF"/>
<path fill-rule="evenodd" clip-rule="evenodd" d="M24 17.3333C24.7364 17.3333 25.3333 17.9302 25.3333 18.6666V23.9999C25.3333 24.7363 24.7364 25.3333 24 25.3333H18.6667C17.9303 25.3333 17.3333 24.7363 17.3333 23.9999V18.6666C17.3333 17.9302 17.9303 17.3333 18.6667 17.3333H24ZM20 20.6666C20 20.2985 20.2985 19.9999 20.6667 19.9999H22C22.3681 19.9999 22.6667 20.2985 22.6667 20.6666V21.9999C22.6667 22.3681 22.3681 22.6666 22 22.6666H20.6667C20.2985 22.6666 20 22.3681 20 21.9999V20.6666Z" fill="#715AFF"/>
<path d="M18.6667 6.66675C17.9303 6.66675 17.3333 7.26371 17.3333 8.00008C17.3333 8.73647 17.9303 9.33341 18.6667 9.33341H22C22.3681 9.33341 22.6667 9.63189 22.6667 10.0001V13.3334C22.6667 14.0698 23.2636 14.6667 24 14.6667C24.7364 14.6667 25.3333 14.0698 25.3333 13.3334V8.00008C25.3333 7.26371 24.7364 6.66675 24 6.66675H18.6667Z" fill="#715AFF"/>
<path d="M18.6667 10.6667C17.9303 10.6667 17.3333 11.2637 17.3333 12.0001V13.3334C17.3333 14.0698 17.9303 14.6667 18.6667 14.6667C19.4031 14.6667 20 14.0698 20 13.3334V12.0001C20 11.2637 19.4031 10.6667 18.6667 10.6667Z" fill="#715AFF"/>
<path d="M8 17.3333C7.26363 17.3333 6.66667 17.9302 6.66667 18.6666V21.3333C6.66667 22.0697 7.26363 22.6666 8 22.6666C8.73639 22.6666 9.33333 22.0697 9.33333 21.3333V20.6666C9.33333 20.2985 9.63181 19.9999 10 19.9999H13.3333C14.0697 19.9999 14.6667 19.403 14.6667 18.6666C14.6667 17.9302 14.0697 17.3333 13.3333 17.3333H8Z" fill="#715AFF"/>
<path d="M13.3333 22.6667C12.5969 22.6667 12 23.2637 12 24.0001C12 24.7365 12.5969 25.3334 13.3333 25.3334C14.0697 25.3334 14.6667 24.7365 14.6667 24.0001C14.6667 23.2637 14.0697 22.6667 13.3333 22.6667Z" fill="#715AFF"/>
</svg>
