<svg width="45" height="45" viewBox="0 0 45 45" fill="none" xmlns="http://www.w3.org/2000/svg">
<path fill-rule="evenodd" clip-rule="evenodd" d="M32.8057 41.1157C33.4575 40.8551 34.0296 40.5928 34.5217 40.3455C35.499 42.0086 37.3067 43.125 39.375 43.125C42.4817 43.125 45 40.6065 45 37.5V26.25C45 23.1433 42.4817 20.625 39.375 20.625C36.7464 20.625 34.539 22.428 33.9219 24.8647C33.3861 25.0526 32.8455 25.2279 32.2974 25.3845C30.7112 25.8377 28.8006 26.2498 27.1875 26.2498C24.7976 26.2498 20.5162 25.3787 18.0381 24.8182C16.1593 24.3934 14.2295 25.4445 13.6096 27.3041L12.8684 29.5281C10.7901 28.7531 8.2739 27.4954 6.51785 26.5639C4.5536 25.5219 2.05685 26.3717 1.20885 28.4917L0.617447 29.9702C0.0395386 31.4149 0.404308 33.1226 1.67027 34.1657C3.11825 35.3589 5.98387 37.5709 9.49563 39.4931C12.9734 41.3966 17.2793 43.1248 21.5625 43.1248C26.5063 43.1248 30.2576 42.135 32.8057 41.1157ZM37.5 37.5C37.5 38.5356 38.3394 39.375 39.375 39.375C40.4106 39.375 41.25 38.5356 41.25 37.5V26.25C41.25 25.2144 40.4106 24.375 39.375 24.375C38.3394 24.375 37.5 25.2144 37.5 26.25V37.5ZM27.1875 29.9998C24.3028 29.9998 19.6001 29.0162 17.211 28.476C17.211 28.476 16.584 30.2396 16.4923 30.5147L23.7122 32.3955C24.5782 32.6211 25.0725 33.5323 24.7896 34.3813C24.5503 35.0989 23.8297 35.538 23.0839 35.4122C20.7943 35.0259 16.0356 34.1811 13.6096 33.4434C10.3424 32.4499 6.9578 31.0423 4.7605 29.8766C4.7605 29.8766 4.18023 31.1604 4.11573 31.3217C5.48199 32.4433 8.11484 34.4623 11.2961 36.2036C14.5591 37.9896 18.2052 39.3748 21.5625 39.3748C28.1681 39.3748 32.2065 37.4166 33.75 36.4969V28.8668C31.6277 29.5011 29.4122 29.9998 27.1875 29.9998Z" fill="#715AFF"/>
<path d="M22.5 1.875C21.4644 1.875 20.625 2.71447 20.625 3.75V14.2231L18.2008 11.799C17.4686 11.067 16.2814 11.067 15.5492 11.799C14.8169 12.5314 14.8169 13.7184 15.5492 14.4508L21.1725 20.0743C21.9043 20.8059 23.0904 20.8065 23.8228 20.0756L29.4469 14.4631C30.1791 13.7312 30.1791 12.5437 29.4469 11.8118C28.7147 11.0794 27.5274 11.0794 26.7952 11.8118L24.375 14.2319V3.75C24.375 2.71447 23.5356 1.875 22.5 1.875Z" fill="#715AFF"/>
</svg>
