<svg width="45" height="45" viewBox="0 0 45 45" fill="none" xmlns="http://www.w3.org/2000/svg">
<path d="M23.5378 30.9489C23.2714 31.2403 22.8949 31.4062 22.5 31.4062C22.1051 31.4062 21.7286 31.2403 21.4622 30.9489L13.9622 22.7458C13.4381 22.1726 13.4779 21.2831 14.0511 20.7591C14.6243 20.235 15.5138 20.2748 16.0379 20.8479L21.0938 26.3779V5.625C21.0938 4.84836 21.7234 4.21875 22.5 4.21875C23.2766 4.21875 23.9063 4.84836 23.9063 5.625V26.3779L28.9622 20.8479C29.4863 20.2748 30.3758 20.235 30.9489 20.7591C31.5221 21.2831 31.5619 22.1726 31.0378 22.7458L23.5378 30.9489Z" fill="#715AFF"/>
<path d="M7.03125 28.125C7.03125 27.3484 6.40166 26.7188 5.625 26.7188C4.84836 26.7188 4.21875 27.3484 4.21875 28.125V28.2279C4.21871 30.7922 4.21868 32.859 4.43723 34.4846C4.66414 36.1723 5.14956 37.5932 6.27816 38.7217C7.40676 39.8505 8.82776 40.3359 10.5155 40.5628C12.141 40.7812 14.2079 40.7812 16.7721 40.7812H28.2279C30.7922 40.7812 32.859 40.7812 34.4846 40.5628C36.1723 40.3359 37.5932 39.8505 38.7219 38.7217C39.8505 37.5932 40.3359 36.1723 40.5628 34.4846C40.7812 32.859 40.7812 30.7922 40.7812 28.2279V28.125C40.7812 27.3484 40.1516 26.7188 39.375 26.7188C38.5984 26.7188 37.9688 27.3484 37.9688 28.125C37.9688 30.8164 37.9658 32.6934 37.7754 34.1098C37.5904 35.4857 37.2521 36.2141 36.7331 36.7331C36.2141 37.2521 35.4857 37.5904 34.1098 37.7754C32.6934 37.9658 30.8164 37.9688 28.125 37.9688H16.875C14.1836 37.9688 12.3065 37.9658 10.8902 37.7754C9.51441 37.5904 8.78582 37.2521 8.26689 36.7331C7.74797 36.2141 7.40963 35.4857 7.22466 34.1098C7.03423 32.6934 7.03125 30.8164 7.03125 28.125Z" fill="#715AFF"/>
</svg>
