<svg width="35" height="37" viewBox="0 0 35 37" fill="none" xmlns="http://www.w3.org/2000/svg">
<path d="M17.5008 30.8406V19.4376M18.9955 31.1639L24.6443 33.0548C27.7208 34.0847 29.2589 34.5996 30.2074 34.2301C31.0311 33.9092 31.6561 33.2198 31.8946 32.3686C32.1693 31.3883 31.5061 29.9082 30.1795 26.9476L21.6621 7.93841C20.3648 5.04323 19.7163 3.59563 18.8127 3.1471C18.0276 2.7574 17.1059 2.75591 16.3197 3.14308C15.4146 3.58873 14.7614 5.03425 13.4549 7.92523L4.85562 26.953C3.51859 29.9114 2.85008 31.3907 3.12192 32.3719C3.358 33.2241 3.9811 33.9156 4.80415 34.2389C5.75191 34.6112 7.29256 34.0997 10.3739 33.0771L16.1494 31.1601C16.6776 30.9848 16.9418 30.8971 17.212 30.8626C17.4516 30.8318 17.6943 30.8322 17.9339 30.8635C18.2039 30.8987 18.4679 30.9871 18.9955 31.1639Z" stroke="#715AFF" stroke-width="5" stroke-linecap="round" stroke-linejoin="round"/>
</svg>
