<svg width="30" height="30" viewBox="0 0 30 30" fill="none" xmlns="http://www.w3.org/2000/svg">
<g clip-path="url(#clip0_13_120)">
<path fill-rule="evenodd" clip-rule="evenodd" d="M27.52 21.134L26.528 22.866C26.254 23.345 25.648 23.508 25.173 23.232L22.418 21.628C21.02 23.219 19.129 24.359 16.983 24.799V27C16.983 27.553 16.54 28 15.992 28H14.008C13.46 28 13.017 27.553 13.017 27V24.799C10.871 24.359 8.98003 23.219 7.58203 21.628L4.82703 23.232C4.35203 23.508 3.74603 23.345 3.47203 22.866L2.48003 21.134C2.20603 20.656 2.36903 20.044 2.84303 19.769L5.60903 18.157C5.28003 17.163 5.08303 16.106 5.08303 15C5.08303 13.894 5.28003 12.838 5.60903 11.843L2.84303 10.232C2.36903 9.95599 2.20603 9.345 2.48003 8.866L3.47203 7.134C3.74603 6.656 4.35203 6.49201 4.82703 6.76801L7.58203 8.37201C8.98003 6.78101 10.871 5.64099 13.017 5.20099V3C13.017 2.447 13.46 2 14.008 2H15.992C16.54 2 16.983 2.447 16.983 3V5.20099C19.129 5.64099 21.02 6.78101 22.418 8.37201L25.173 6.76801C25.648 6.49201 26.254 6.656 26.528 7.134L27.52 8.866C27.794 9.345 27.631 9.95599 27.157 10.232L24.391 11.843C24.72 12.838 24.917 13.894 24.917 15C24.917 16.106 24.72 17.163 24.391 18.157L27.157 19.769C27.631 20.044 27.794 20.656 27.52 21.134ZM29.008 18.536L26.685 17.184C26.815 16.474 26.901 15.749 26.901 15C26.901 14.252 26.815 13.526 26.685 12.816L29.008 11.464C29.957 10.912 30.281 9.68799 29.733 8.73199L27.75 5.26801C27.203 4.31201 25.989 3.98301 25.041 4.53601L22.694 5.901C21.598 4.961 20.352 4.19199 18.967 3.69699V2C18.967 0.896 18.079 0 16.983 0H13.017C11.921 0 11.033 0.896 11.033 2V3.69699C9.64803 4.19199 8.40203 4.961 7.30603 5.901L4.95903 4.53601C4.01103 3.98301 2.79703 4.31201 2.25003 5.26801L0.267029 8.73199C-0.280971 9.68799 0.0440273 10.912 0.992027 11.464L3.31503 12.816C3.18503 13.526 3.09903 14.252 3.09903 15C3.09903 15.749 3.18503 16.474 3.31503 17.184L0.992027 18.536C0.0440273 19.088 -0.280971 20.312 0.267029 21.268L2.25003 24.732C2.79703 25.688 4.01103 26.017 4.95903 25.464L7.30603 24.099C8.40203 25.039 9.64803 25.809 11.033 26.303V28C11.033 29.104 11.921 30 13.017 30H16.983C18.079 30 18.967 29.104 18.967 28V26.303C20.352 25.809 21.598 25.039 22.694 24.099L25.041 25.464C25.989 26.017 27.203 25.688 27.75 24.732L29.733 21.268C30.281 20.312 29.957 19.088 29.008 18.536ZM15 18C13.357 18 12.025 16.657 12.025 15C12.025 13.344 13.357 12 15 12C16.643 12 17.975 13.344 17.975 15C17.975 16.657 16.643 18 15 18ZM15 10C12.261 10 10.042 12.238 10.042 15C10.042 17.762 12.261 20 15 20C17.739 20 19.959 17.762 19.959 15C19.959 12.238 17.739 10 15 10Z" fill="#715AFF"/>
</g>
<defs>
<clipPath id="clip0_13_120">
<rect width="30" height="30" fill="white"/>
</clipPath>
</defs>
</svg>
