<svg width="45" height="32" viewBox="0 0 45 32" fill="none" xmlns="http://www.w3.org/2000/svg">
<g clip-path="url(#clip0_14_189)">
<path d="M7.3094 24.042C7.58096 23.7994 7.95436 23.658 8.35039 23.658H44.2644C44.9207 23.658 45.2488 24.3654 44.7849 24.7797L37.6903 31.1161C37.4188 31.3586 37.0454 31.5001 36.6494 31.5001H0.735349C0.0790754 31.5001 -0.249061 30.7927 0.214856 30.3784L7.3094 24.042Z" fill="url(#paint0_linear_14_189)"/>
<path d="M7.30943 0.384023C7.59231 0.141482 7.9657 0 8.35042 0H44.2644C44.9207 0 45.2488 0.707411 44.7849 1.12175L37.6904 7.45813C37.4188 7.70067 37.0454 7.84215 36.6494 7.84215H0.73538C0.079106 7.84215 -0.249031 7.13474 0.214887 6.7204L7.30943 0.384023Z" fill="url(#paint1_linear_14_189)"/>
<path d="M37.6903 12.1372C37.4188 11.8947 37.0454 11.7532 36.6494 11.7532H0.735349C0.0790754 11.7532 -0.249061 12.4606 0.214856 12.8749L7.3094 19.2113C7.58096 19.4538 7.95436 19.5953 8.35039 19.5953H44.2644C44.9207 19.5953 45.2488 18.8879 44.7849 18.4736L37.6903 12.1372Z" fill="url(#paint2_linear_14_189)"/>
</g>
<defs>
<linearGradient id="paint0_linear_14_189" x1="40.8336" y1="-3.78507" x2="20.1086" y2="40.6613" gradientUnits="userSpaceOnUse">
<stop stop-color="#00FFA3"/>
<stop offset="1" stop-color="#DC1FFF"/>
</linearGradient>
<linearGradient id="paint1_linear_14_189" x1="29.9655" y1="-8.85288" x2="9.24057" y2="35.5934" gradientUnits="userSpaceOnUse">
<stop stop-color="#00FFA3"/>
<stop offset="1" stop-color="#DC1FFF"/>
</linearGradient>
<linearGradient id="paint2_linear_14_189" x1="35.3649" y1="-6.33512" x2="14.64" y2="38.1112" gradientUnits="userSpaceOnUse">
<stop stop-color="#00FFA3"/>
<stop offset="1" stop-color="#DC1FFF"/>
</linearGradient>
<clipPath id="clip0_14_189">
<rect width="45" height="31.5" fill="white"/>
</clipPath>
</defs>
</svg>
