<svg width="22" height="22" viewBox="0 0 22 22" fill="none" xmlns="http://www.w3.org/2000/svg">
<g clip-path="url(#clip0_12_85)">
<path d="M8.89167 16.6835L11.1833 14.4377C11.3421 14.2753 11.4384 14.0621 11.4552 13.8357C11.472 13.6092 11.4082 13.3841 11.275 13.2002C11.2008 13.0897 11.1023 12.9977 10.987 12.9312C10.8717 12.8648 10.7428 12.8256 10.61 12.8168C10.4772 12.8079 10.3442 12.8296 10.2211 12.8802C10.098 12.9308 9.98819 13.0089 9.9 13.1085L9.16667 13.8418V6.87516C9.16667 6.63205 9.07009 6.39889 8.89818 6.22698C8.72627 6.05507 8.49311 5.9585 8.25 5.9585C8.00688 5.9585 7.77373 6.05507 7.60182 6.22698C7.42991 6.39889 7.33333 6.63205 7.33333 6.87516V13.8418L6.6 13.1085C6.51181 13.0089 6.40195 12.9308 6.27887 12.8802C6.15579 12.8296 6.02276 12.8079 5.89 12.8168C5.75723 12.8256 5.62825 12.8648 5.51298 12.9312C5.3977 12.9977 5.29919 13.0897 5.225 13.2002C5.09184 13.3841 5.02801 13.6092 5.04479 13.8357C5.06156 14.0621 5.15786 14.2753 5.31667 14.4377L7.60833 16.6835C7.68991 16.7724 7.78907 16.8434 7.89953 16.892C8.00999 16.9405 8.12934 16.9656 8.25 16.9656C8.37066 16.9656 8.49001 16.9405 8.60047 16.892C8.71093 16.8434 8.81009 16.7724 8.89167 16.6835Z" fill="#715AFF"/>
<path d="M14.6667 15.1251V8.15843L15.4 8.89176C15.4882 8.9914 15.598 9.0695 15.7211 9.12007C15.8442 9.17064 15.9772 9.19233 16.11 9.18348C16.2428 9.17463 16.3717 9.13547 16.487 9.06901C16.6023 9.00255 16.7008 8.91056 16.775 8.8001C16.9082 8.61615 16.972 8.39106 16.9552 8.1646C16.9384 7.93814 16.8421 7.72491 16.6833 7.56259L14.3917 5.31676C14.3101 5.22785 14.2109 5.15687 14.1005 5.10831C13.99 5.05974 13.8707 5.03467 13.75 5.03467C13.6293 5.03467 13.51 5.05974 13.3995 5.10831C13.2891 5.15687 13.1899 5.22785 13.1083 5.31676L10.8167 7.56259C10.6579 7.72491 10.5616 7.93814 10.5448 8.1646C10.528 8.39106 10.5918 8.61615 10.725 8.8001C10.7992 8.91056 10.8977 9.00255 11.013 9.06901C11.1283 9.13547 11.2572 9.17463 11.39 9.18348C11.5228 9.19233 11.6558 9.17064 11.7789 9.12007C11.902 9.0695 12.0118 8.9914 12.1 8.89176L12.8333 8.15843V15.1251C12.8333 15.3682 12.9299 15.6014 13.1018 15.7733C13.2737 15.9452 13.5069 16.0418 13.75 16.0418C13.9931 16.0418 14.2263 15.9452 14.3982 15.7733C14.5701 15.6014 14.6667 15.3682 14.6667 15.1251Z" fill="#715AFF"/>
<path d="M11 19.2501C9.3683 19.2501 7.77325 18.7662 6.41655 17.8597C5.05984 16.9532 4.00242 15.6647 3.37799 14.1572C2.75357 12.6497 2.59019 10.9909 2.90852 9.39059C3.22685 7.79025 4.01259 6.32024 5.16637 5.16645C6.32015 4.01267 7.79016 3.22694 9.3905 2.90861C10.9908 2.59028 12.6496 2.75366 14.1571 3.37808C15.6646 4.0025 16.9531 5.05993 17.8596 6.41663C18.7661 7.77334 19.25 9.36839 19.25 11.0001C19.238 13.1844 18.3649 15.2758 16.8203 16.8204C15.2758 18.365 13.1843 19.2381 11 19.2501ZM11 21.0834C12.9943 21.0834 14.9438 20.492 16.602 19.3841C18.2602 18.2761 19.5526 16.7013 20.3158 14.8588C21.079 13.0163 21.2787 10.9889 20.8896 9.03293C20.5005 7.07695 19.5402 5.28027 18.13 3.87009C16.7198 2.45991 14.9231 1.49957 12.9672 1.1105C11.0112 0.721433 8.98376 0.921117 7.14128 1.6843C5.29879 2.44748 3.72399 3.73989 2.61601 5.39809C1.50804 7.05628 0.916666 9.00579 0.916666 11.0001C0.910598 12.3259 1.16727 13.6399 1.67185 14.866C2.17644 16.0921 2.91894 17.2061 3.85648 18.1436C4.79401 19.0811 5.908 19.8236 7.13411 20.3282C8.36021 20.8328 9.67414 21.0895 11 21.0834Z" fill="#715AFF"/>
</g>
<defs>
<clipPath id="clip0_12_85">
<rect width="22" height="22" fill="white"/>
</clipPath>
</defs>
</svg>
