<svg width="50" height="50" viewBox="0 0 50 50" fill="none" xmlns="http://www.w3.org/2000/svg">
<circle cx="25" cy="25" r="25" fill="black"/>
<path d="M24.5 43C34.165 43 42 35.165 42 25.5C42 15.835 34.165 8 24.5 8C14.835 8 7 15.835 7 25.5C7 35.165 14.835 43 24.5 43Z" fill="#3E73C4"/>
<path d="M28.8991 27.8232C28.8991 25.5 27.4991 24.7038 24.6991 24.3713C22.6997 24.1055 22.3005 23.575 22.3005 22.6453C22.3005 21.7157 22.9677 21.1185 24.2999 21.1185C25.4997 21.1185 26.1669 21.5166 26.4994 22.513C26.534 22.6093 26.5974 22.6928 26.6809 22.752C26.7644 22.8113 26.864 22.8435 26.9664 22.8444H28.0328C28.0944 22.846 28.1557 22.8352 28.213 22.8124C28.2702 22.7897 28.3223 22.7555 28.3659 22.7121C28.4096 22.6686 28.444 22.6167 28.467 22.5596C28.49 22.5024 28.5012 22.4412 28.4999 22.3796V22.3139C28.3695 21.593 28.0048 20.9354 27.4623 20.4431C26.9197 19.9508 26.2298 19.6515 25.4997 19.5916V17.9991C25.4997 17.7333 25.2995 17.5342 24.967 17.4675H23.9663C23.7005 17.4675 23.5003 17.6666 23.4336 17.9991V19.526C21.4331 19.7907 20.1677 21.1185 20.1677 22.7788C20.1677 24.9685 21.4999 25.8314 24.2999 26.1639C26.1669 26.4953 26.7663 26.8946 26.7663 27.9566C26.7663 29.0175 25.8333 29.7482 24.5667 29.7482C22.8331 29.7482 22.2338 29.0186 22.0336 28.0222C21.968 27.7575 21.7667 27.6241 21.5666 27.6241H20.4335C20.372 27.6226 20.3108 27.6336 20.2537 27.6564C20.1965 27.6792 20.1446 27.7134 20.1011 27.7568C20.0575 27.8003 20.0232 27.8521 20.0003 27.9092C19.9773 27.9663 19.9662 28.0274 19.9675 28.0889V28.1546C20.2333 29.8149 21.3008 31.0092 23.5003 31.3417V32.9353C23.5003 33.2 23.7005 33.4002 24.033 33.4658H25.0338C25.2995 33.4658 25.4997 33.2667 25.5664 32.9353V31.3407C27.5669 31.0092 28.8991 29.6147 28.8991 27.8221V27.8232Z" fill="white"/>
<path d="M21.1006 34.7936C15.9009 32.9342 13.2344 27.1592 15.1681 22.0481C16.1678 19.2591 18.3674 17.1361 21.1006 16.1397C21.3675 16.0073 21.4999 15.8083 21.4999 15.4758V14.5461C21.4999 14.2814 21.3675 14.0823 21.1006 14.0156C21.0339 14.0156 20.9005 14.0156 20.8338 14.0812C19.3336 14.5497 17.9409 15.3103 16.7359 16.3193C15.5309 17.3282 14.5374 18.5655 13.8126 19.96C13.0878 21.3544 12.6459 22.8785 12.5125 24.4444C12.3791 26.0104 12.5568 27.5872 13.0353 29.0842C14.2341 32.803 17.1008 35.6577 20.8338 36.852C21.1006 36.9844 21.3675 36.852 21.4331 36.5862C21.4999 36.5206 21.4999 36.4528 21.4999 36.3205V35.3908C21.4999 35.1917 21.3008 34.927 21.1006 34.7936ZM28.1663 14.0823C27.8994 13.9489 27.6325 14.0823 27.5669 14.347C27.5002 14.4137 27.5002 14.4805 27.5002 14.6128V15.5425C27.5002 15.8083 27.6992 16.073 27.8994 16.2064C33.0991 18.0658 35.7656 23.8408 33.8319 28.9519C32.8322 31.7409 30.6327 33.8639 27.8994 34.8603C27.6325 34.9927 27.5002 35.1917 27.5002 35.5242V36.4539C27.5002 36.7186 27.6325 36.9177 27.8994 36.9844C27.9661 36.9844 28.0995 36.9844 28.1663 36.9188C29.6664 36.4503 31.0591 35.6897 32.2641 34.6807C33.4691 33.6718 34.4626 32.4345 35.1874 31.04C35.9123 29.6456 36.3541 28.1215 36.4875 26.5556C36.6209 24.9896 36.4432 23.4128 35.9647 21.9158C34.7659 18.1314 31.8325 15.2767 28.1663 14.0823Z" fill="white"/>
</svg>
