<svg width="171" height="138" viewBox="0 0 171 138" fill="none" xmlns="http://www.w3.org/2000/svg">
<path d="M160.739 59.0028C160.739 75.6177 148.507 89.3276 132.606 91.723V91.4172C131.026 71.6424 114.972 55.5881 95.044 54.0082H94.8911C97.2865 38.1068 110.996 25.875 127.611 25.875C145.908 25.875 160.739 40.7061 160.739 59.0028Z" fill="#715AFF"/>
<path d="M124.961 92.0288C123.686 75.8726 110.741 62.9272 94.5849 61.6531C93.7185 61.6021 92.8011 61.5511 91.9347 61.5511C73.6379 61.5511 58.8068 76.3822 58.8068 94.679C58.8068 112.976 73.6379 127.807 91.9347 127.807C110.231 127.807 125.062 112.976 125.062 94.679C125.062 93.8126 125.012 92.8952 124.961 92.0288ZM96.4197 99.164L91.9347 107.42L87.4496 99.164L79.1932 94.679L87.4496 90.194L91.9347 81.9375L96.4197 90.194L104.676 94.679L96.4197 99.164Z" fill="#715AFF"/>
<path opacity="0.15" d="M75.4688 43.125C75.4688 60.9881 60.9881 75.4688 43.125 75.4688C25.262 75.4688 10.7812 60.9881 10.7812 43.125C10.7812 25.262 25.262 10.7812 43.125 10.7812C60.9881 10.7812 75.4688 25.262 75.4688 43.125Z" fill="#715AFF"/>
<path d="M43.125 57.5H46.7188C49.1147 57.5 53.9062 56.0625 53.9062 50.3125C53.9062 44.5625 49.1147 43.125 46.7188 43.125H39.5312C37.1353 43.125 32.3438 41.6875 32.3438 35.9375C32.3438 30.1875 37.1353 28.75 39.5312 28.75H43.125M43.125 57.5H32.3438M43.125 57.5V64.6875M43.125 28.75H53.9062M43.125 28.75V21.5625M75.4688 43.125C75.4688 60.9881 60.9881 75.4688 43.125 75.4688C25.262 75.4688 10.7812 60.9881 10.7812 43.125C10.7812 25.262 25.262 10.7812 43.125 10.7812C60.9881 10.7812 75.4688 25.262 75.4688 43.125Z" stroke="#715AFF" stroke-width="3.75" stroke-linecap="round" stroke-linejoin="round"/>
</svg>
